<svg width="24" height="24" viewBox="0 0 24 24" fill="none" xmlns="http://www.w3.org/2000/svg">
<path d="M10.5605 2.09274C8.79435 2.34677 7.08468 3.06452 5.63306 4.2621L8.75403 7.38306C9.875 5.93952 10.5 4.10887 10.5605 2.09274V2.09274ZM12 10.629L18.3669 4.2621C16.6573 2.85081 14.5927 2.10484 12.5 2C12.4516 4.57661 11.6331 6.93145 10.1331 8.7621L12 10.629ZM4.2621 5.63306C3.06452 7.08468 2.34677 8.79435 2.09274 10.5605C4.10887 10.5 5.94355 9.875 7.38306 8.75403L4.2621 5.63306ZM15.2379 13.8669C17.0645 12.371 19.4194 11.5524 22 11.5C21.8952 9.40726 21.1492 7.34274 19.7379 5.63306L13.371 12L15.2379 13.8669V13.8669ZM12 13.371L5.63306 19.7379C7.34274 21.1452 9.40726 21.8952 11.5 22C11.5524 19.4194 12.371 17.0645 13.8669 15.2379L12 13.371ZM19.7379 18.3669C20.9355 16.9153 21.6532 15.2056 21.9073 13.4395C19.8871 13.504 18.0565 14.129 16.6169 15.246L19.7379 18.3669ZM8.7621 10.1331C6.93145 11.6331 4.57661 12.4556 2 12.5C2.10484 14.5927 2.85081 16.6573 4.2621 18.3669L10.629 12L8.7621 10.1331ZM13.4395 21.9073C15.2056 21.6532 16.9153 20.9355 18.3669 19.7379L15.246 16.6169C14.129 18.0565 13.504 19.8911 13.4395 21.9073Z" fill="#00377A"/>
</svg>
