<svg width="24" height="24" viewBox="0 0 24 24" fill="none"
    xmlns="http://www.w3.org/2000/svg">
    <path d="M20.8135 13.8609L20.7914 12.6389C20.1721 12.6244 19.5557 12.5501 18.9507 12.4172L18.7163 13.2305C18.6939 13.3151 18.6549 13.3944 18.6014 13.4637C18.5479 13.533 18.4811 13.5909 18.405 13.634C18.3288 13.6771 18.2447 13.7045 18.1578 13.7147C18.0708 13.7248 17.9828 13.7174 17.8987 13.693C17.8146 13.6686 17.7363 13.6276 17.6683 13.5725C17.6004 13.5173 17.5441 13.4491 17.5029 13.3719C17.4617 13.2947 17.4363 13.21 17.4283 13.1228C17.4203 13.0357 17.4298 12.9478 17.4563 12.8644L17.6907 12.0497C17.1024 11.8339 16.5364 11.5615 16.0008 11.2364L15.5114 11.9287C15.411 12.0709 15.2582 12.1673 15.0866 12.1968C14.9151 12.2263 14.7388 12.1865 14.5967 12.086C14.4545 11.9856 14.3581 11.8327 14.3286 11.6612C14.2991 11.4896 14.339 11.3134 14.4394 11.1712L14.9274 10.4808C14.4112 10.062 13.9399 9.59069 13.5211 9.07452L12.8311 9.56389C12.7607 9.61363 12.6812 9.64902 12.5972 9.66803C12.5131 9.68705 12.4261 9.68932 12.3412 9.67471C12.2562 9.66011 12.175 9.62892 12.1021 9.58292C12.0292 9.53692 11.9661 9.47702 11.9164 9.40663C11.8666 9.33624 11.8312 9.25674 11.8122 9.17267C11.7932 9.08861 11.7909 9.00162 11.8055 8.91667C11.835 8.74512 11.9315 8.59231 12.0736 8.49186L12.7646 8.00343C12.4386 7.46787 12.1657 6.90174 11.9499 6.31311L11.138 6.54749C11.0552 6.57153 10.9686 6.57903 10.8829 6.56956C10.7972 6.5601 10.7143 6.53386 10.6387 6.49233C10.5632 6.45081 10.4966 6.39481 10.4427 6.32755C10.3889 6.26028 10.3488 6.18307 10.3247 6.1003C10.3007 6.01754 10.2932 5.93085 10.3026 5.84519C10.3121 5.75953 10.3384 5.67657 10.3799 5.60105C10.4214 5.52553 10.4774 5.45892 10.5447 5.40504C10.6119 5.35116 10.6891 5.31106 10.7719 5.28702L11.5828 5.05265C11.473 4.54978 11.4036 4.03893 11.3752 3.52499V3.52499C11.3699 3.43124 11.3661 3.33749 11.3639 3.24374L10.5099 3.22827C10.338 3.22508 10.1741 3.15453 10.0537 3.0318C9.93325 2.90908 9.86579 2.74398 9.86582 2.57202C8.13769 2.95506 6.54644 3.80132 5.26274 5.02003C3.97905 6.23874 3.05133 7.78392 2.5791 9.48983C2.76706 9.50157 2.94372 9.58358 3.07399 9.71958C3.20425 9.85558 3.27859 10.0356 3.28223 10.2239L3.30285 11.369C3.37691 11.3714 3.45098 11.3742 3.52457 11.3784C4.03851 11.4068 4.54936 11.4762 5.05223 11.5861L5.2866 10.7751C5.33515 10.608 5.44811 10.467 5.60062 10.3831C5.75314 10.2992 5.93273 10.2794 6.09988 10.328C6.26703 10.3765 6.40805 10.4895 6.49191 10.642C6.57577 10.7945 6.59561 10.9741 6.54707 11.1412L6.31269 11.9531C6.90037 12.1691 7.46555 12.442 8.00019 12.7678L8.48535 12.0769C8.5858 11.9347 8.73861 11.8383 8.91016 11.8088C9.08171 11.7793 9.25795 11.8191 9.40011 11.9196C9.54227 12.02 9.63871 12.1729 9.6682 12.3444C9.69769 12.516 9.65783 12.6922 9.55738 12.8344L9.07035 13.5248C9.3284 13.7343 9.57545 13.9569 9.8105 14.1919C10.0456 14.4268 10.2682 14.6739 10.4775 14.932L11.168 14.444C11.3103 14.3436 11.4866 14.3038 11.6583 14.3334C11.8299 14.3629 11.9828 14.4595 12.0832 14.6018C12.1837 14.7441 12.2235 14.9204 12.1939 15.0921C12.1643 15.2637 12.0678 15.4166 11.9255 15.517L11.2336 16.0059C11.559 16.5414 11.8317 17.1072 12.0478 17.6953L12.8625 17.4586C13.0297 17.41 13.2093 17.4299 13.3618 17.5137C13.5143 17.5976 13.6273 17.7386 13.6758 17.9058C13.7244 18.0729 13.7045 18.2525 13.6207 18.405C13.5368 18.5575 13.3958 18.6705 13.2286 18.719L12.4153 18.9534C12.5448 19.5433 12.6185 20.1441 12.6357 20.7478L13.4921 20.7633C13.6909 20.7668 13.8802 20.8492 14.0183 20.9923C14.1564 21.1355 14.232 21.3275 14.2285 21.5264C14.2282 21.545 14.2269 21.5637 14.2247 21.5822C15.9549 21.1702 17.5395 20.2928 18.8069 19.0449C20.0742 17.797 20.9761 16.2263 21.4149 14.5026C21.253 14.4891 21.1019 14.416 20.9908 14.2974C20.8797 14.1789 20.8165 14.0234 20.8135 13.8609V13.8609Z" fill="#00377A"/>
    <path d="M14.1322 2.63524C14.1298 2.80758 14.0596 2.97203 13.9369 3.09307C13.8142 3.21411 13.6488 3.28201 13.4764 3.28212H13.4647L12.6768 3.26806C12.6791 3.32946 12.6814 3.39087 12.6847 3.45227C12.7079 3.86679 12.7618 4.27902 12.846 4.68556L13.6096 4.46337C13.7713 4.42965 13.9398 4.45817 14.0814 4.54322C14.223 4.62827 14.3273 4.7636 14.3735 4.9222C14.4198 5.0808 14.4045 5.25099 14.3307 5.3988C14.257 5.54662 14.1302 5.66118 13.9757 5.71962L13.213 5.94134C13.3835 6.39119 13.5926 6.82546 13.8379 7.2393L14.4866 6.78087C14.557 6.73113 14.6365 6.69574 14.7206 6.67673C14.8046 6.65771 14.8916 6.65544 14.9766 6.67005C15.0615 6.68465 15.1427 6.71584 15.2156 6.76184C15.2885 6.80784 15.3516 6.86774 15.4014 6.93813C15.4511 7.00852 15.4865 7.08802 15.5055 7.17209C15.5245 7.25615 15.5268 7.34314 15.5122 7.42809C15.4976 7.51303 15.4664 7.59427 15.4204 7.66716C15.3744 7.74004 15.3145 7.80316 15.2441 7.8529L14.5944 8.3118C14.7585 8.50962 14.9322 8.70009 15.1157 8.88321C15.2985 9.06649 15.4907 9.23946 15.6875 9.40352L16.146 8.75477C16.196 8.68438 16.2594 8.62453 16.3325 8.57864C16.4057 8.53275 16.4871 8.50171 16.5723 8.4873C16.6574 8.4729 16.7446 8.4754 16.8287 8.49467C16.9129 8.51394 16.9925 8.5496 17.0628 8.59962C17.1332 8.64963 17.1931 8.71302 17.239 8.78617C17.2849 8.85931 17.3159 8.94078 17.3303 9.02592C17.3447 9.11106 17.3422 9.1982 17.323 9.28238C17.3037 9.36655 17.268 9.4461 17.218 9.51649L16.7605 10.1634C17.1743 10.4085 17.6084 10.6175 18.058 10.7882L18.2811 10.0251C18.3297 9.85794 18.4426 9.71692 18.5952 9.63305C18.7477 9.54919 18.9273 9.52935 19.0944 9.5779C19.2616 9.62644 19.4026 9.7394 19.4864 9.89192C19.5703 10.0444 19.5901 10.224 19.5416 10.3912L19.3199 11.1534C19.7975 11.2528 20.283 11.31 20.7707 11.3245L20.7632 10.9026C20.7601 10.7286 20.8264 10.5606 20.9472 10.4354C21.0681 10.3102 21.2337 10.2382 21.4077 10.2351H21.4194C21.4601 10.2354 21.5008 10.2393 21.5408 10.2468C21.1834 8.38828 20.2928 6.67396 18.9777 5.31297C17.6626 3.95198 15.9798 3.00317 14.1346 2.58228C14.1318 2.60103 14.1327 2.6179 14.1322 2.63524Z" fill="#00377A"/>
    <path d="M9.77074 21.4485C9.77431 21.2496 9.85671 21.0604 9.99982 20.9223C10.1429 20.7842 10.335 20.7086 10.5339 20.7121L11.3195 20.7257C11.3026 20.2538 11.2459 19.7841 11.1498 19.3218L10.3876 19.543C10.3048 19.5671 10.2181 19.5745 10.1324 19.5651C10.0467 19.5556 9.96373 19.5293 9.88819 19.4878C9.81265 19.4462 9.74603 19.3902 9.69214 19.3229C9.63825 19.2556 9.59814 19.1784 9.5741 19.0956C9.55006 19.0128 9.54257 18.9261 9.55204 18.8404C9.56152 18.7547 9.58778 18.6717 9.62932 18.5962C9.67087 18.5206 9.72689 18.454 9.79418 18.4001C9.86148 18.3462 9.93873 18.3061 10.0215 18.2821L10.7814 18.0618C10.6109 17.6121 10.4018 17.1779 10.1565 16.7643L9.50965 17.2218C9.43925 17.2715 9.35976 17.3069 9.27569 17.3259C9.19162 17.3449 9.10464 17.3472 9.01969 17.3326C8.93475 17.318 8.85351 17.2868 8.78062 17.2408C8.70773 17.1948 8.64462 17.1349 8.59488 17.0645C8.54514 16.9941 8.50976 16.9146 8.49074 16.8305C8.47173 16.7465 8.46946 16.6595 8.48406 16.5745C8.49866 16.4896 8.52985 16.4084 8.57585 16.3355C8.62185 16.2626 8.68176 16.1995 8.75215 16.1497L9.4009 15.6913C9.23683 15.4935 9.06386 15.3022 8.88058 15.1194C8.6973 14.9366 8.50558 14.7622 8.30918 14.5982L7.85027 15.2479C7.74982 15.39 7.59701 15.4865 7.42546 15.5159C7.25391 15.5454 7.07767 15.5056 6.93551 15.4051C6.79335 15.3047 6.69691 15.1519 6.66742 14.9803C6.63793 14.8088 6.67779 14.6325 6.77824 14.4904L7.23668 13.8416C6.82294 13.5961 6.38865 13.3871 5.93871 13.2168L5.71887 13.9794C5.67032 14.1466 5.55734 14.2877 5.40477 14.3716C5.25221 14.4555 5.07256 14.4754 4.90535 14.4268C4.73814 14.3783 4.59706 14.2653 4.51316 14.1128C4.42925 13.9602 4.40938 13.7805 4.45793 13.6133L4.67965 12.8497C4.27316 12.7653 3.86091 12.7114 3.44637 12.6885C3.40465 12.6861 3.36246 12.6847 3.32074 12.6829L3.32824 13.1793C3.33175 13.3781 3.25615 13.5702 3.11805 13.7133C2.97996 13.8564 2.79068 13.9388 2.59184 13.9424H2.57824C2.51593 13.9421 2.45388 13.9341 2.39355 13.9185C2.74681 15.778 3.63366 17.4944 4.94588 18.8584C6.25811 20.2224 7.93898 21.175 9.7834 21.5999C9.77397 21.55 9.76973 21.4993 9.77074 21.4485Z" fill="#00377A"/>
</svg>
