<svg width="24" height="24" viewBox="0 0 24 24" fill="none"
    xmlns="http://www.w3.org/2000/svg">
    <path d="M21.4153 4.10887C21.2218 3.375 20.6452 2.79839 19.9113 2.60081C18.9476 2.34274 17.4435 2.03629 15.6855 2L22 8.32258C21.9677 6.56855 21.6694 5.07258 21.4153 4.10887V4.10887ZM2.58468 19.8911C2.77823 20.625 3.35484 21.2016 4.08871 21.3992C5.05242 21.6573 6.55645 21.9637 8.31452 22L2 15.6774C2.03226 17.4315 2.33065 18.9274 2.58468 19.8911ZM2.16935 13.1048L10.8871 21.8387C16.2298 21.0565 20.9194 17.0524 21.8347 10.8952L13.1129 2.16129C7.77016 2.94355 3.08065 6.94758 2.16935 13.1048ZM14.9637 8.12097C15.0887 7.99597 15.2944 7.99597 15.4194 8.12097L15.875 8.57661C16 8.70161 16 8.90726 15.875 9.03226L14.7339 10.1734L15.875 11.3145C16 11.4395 16 11.6452 15.875 11.7702L15.4194 12.2258C15.2944 12.3508 15.0887 12.3508 14.9637 12.2258L13.8226 11.0847L12.9113 12L14.0524 13.1411C14.1774 13.2661 14.1774 13.4718 14.0524 13.5968L13.5968 14.0524C13.4718 14.1774 13.2661 14.1774 13.1411 14.0524L12 12.9113L11.0887 13.8226L12.2298 14.9637C12.3548 15.0887 12.3548 15.2944 12.2298 15.4194L11.7742 15.875C11.6492 16 11.4435 16 11.3185 15.875L10.1774 14.7339L9.03629 15.875C8.91129 16 8.70564 16 8.58064 15.875L8.125 15.4194C8 15.2944 8 15.0887 8.125 14.9637L9.26613 13.8226L8.125 12.6855C8 12.5605 8 12.3548 8.125 12.2298L8.58064 11.7742C8.70564 11.6492 8.91129 11.6492 9.03629 11.7742L10.1774 12.9153L11.0887 12.004L9.94758 10.8629C9.82258 10.7379 9.82258 10.5323 9.94758 10.4073L10.4032 9.95161C10.5282 9.82661 10.7339 9.82661 10.8589 9.95161L12 11.0927L12.9113 10.1815L11.7702 9.04032C11.6452 8.91532 11.6452 8.70968 11.7702 8.58468L12.2258 8.12903C12.3508 8.00403 12.5565 8.00403 12.6815 8.12903L13.8226 9.27016L14.9637 8.12097V8.12097Z" fill="#00377A"/>
</svg>
