<svg width="24" height="24" viewBox="0 0 24 24" fill="none"
    xmlns="http://www.w3.org/2000/svg">
    <path d="M21 12C21.5026 12 22.0044 11.9579 22.5 11.8744C22.4674 9.13304 21.3639 6.51318 19.4254 4.57463C17.4868 2.63609 14.867 1.53261 12.1256 1.5C12.0421 1.99563 12 2.49737 12 3C12 7.96265 16.0373 12 21 12Z" fill="#00377A"/>
    <path d="M11.8758 22.5003C11.9198 22.2345 11.9531 21.9659 11.9737 21.695C11.9911 21.4662 12 21.2328 12 21.0017C12 16.0391 7.96265 12.0017 3 12.0017C2.49737 12.0017 1.99563 12.0438 1.5 12.1273C1.53298 14.8687 2.63681 17.4884 4.57562 19.4267C6.51444 21.3649 9.13444 22.4681 11.8758 22.5003V22.5003Z" fill="#00377A"/>
    <path d="M13.5755 10.4248C12.5974 9.45205 11.8219 8.29499 11.294 7.02057C10.7661 5.74615 10.4962 4.37967 10.5 3.00024C10.5 2.52993 10.5313 2.06014 10.5937 1.59399C8.31541 1.90252 6.20122 2.95 4.57549 4.57573C2.94976 6.20146 1.90228 8.31566 1.59375 10.594C2.0599 10.5316 2.52969 10.5003 3 10.5002C4.37943 10.4965 5.7459 10.7664 7.02032 11.2943C8.29475 11.8222 9.45181 12.5976 10.4245 13.5757C11.4026 14.5484 12.178 15.7055 12.706 16.9799C13.2339 18.2543 13.5037 19.6208 13.5 21.0002C13.5 21.2693 13.4897 21.5407 13.4695 21.8074C13.4539 22.008 13.4327 22.2079 13.4058 22.407C15.6842 22.0983 17.7985 21.0508 19.4243 19.425C21.0501 17.7992 22.0976 15.6849 22.4062 13.4065C21.9401 13.4689 21.4703 13.5002 21 13.5002C19.6206 13.504 18.2541 13.2341 16.9797 12.7062C15.7052 12.1783 14.5482 11.4029 13.5755 10.4248V10.4248Z" fill="#00377A"/>
</svg>
