<svg width="24" height="24" viewBox="0 0 24 24" fill="none"
    xmlns="http://www.w3.org/2000/svg">
    <path d="M11.0081 11.4936C10.9772 10.0278 10.6666 8.58144 10.0929 7.2322C6.43223 8.94161 3.74314 12.1669 2.82393 15.9727C3.36187 17.2053 4.14197 18.3172 5.11792 19.2424C6.04602 16.0152 8.14689 13.2514 11.0081 11.4936V11.4936ZM9.52045 6.07513C8.90728 5.00681 8.12587 4.04434 7.2063 3.22477C3.53753 5.23252 1.36852 9.38912 2.16678 13.7957C3.51334 10.4454 6.13389 7.66762 9.52045 6.07513ZM17.0838 12.7313C17.4305 8.70777 15.9831 4.76888 13.1529 2.07173C12.5603 2.00319 11.0726 1.84999 9.16566 2.41442C11.4988 4.83212 12.8434 8.035 12.9352 11.3936C14.2201 12.1001 15.6282 12.5542 17.0838 12.7313V12.7313ZM12.0563 13.1143C10.8024 13.8757 9.70499 14.869 8.82298 16.0413C12.1289 18.3514 16.2613 19.069 20.0107 17.9684C20.8172 16.8878 21.396 15.6548 21.7121 14.344C20.6459 14.6156 19.5507 14.7564 18.4505 14.7633C16.2492 14.7592 14.06 14.1948 12.0563 13.1143ZM8.09325 17.1339C7.48045 18.1821 7.05713 19.3271 6.79911 20.5285C8.58751 21.6261 10.6769 22.131 12.7692 21.971C14.8615 21.811 16.8498 20.9943 18.4505 19.6375C13.8988 20.2866 10.2542 18.6376 8.09325 17.1339V17.1339ZM15.3623 2.59584C17.5917 5.4341 18.6883 9.09481 18.3698 12.82C19.5981 12.8226 20.8188 12.6294 21.9862 12.2475C21.9862 12.1669 21.9983 12.0863 21.9983 12.0056C21.9983 7.65955 19.2286 3.97869 15.3623 2.59584V2.59584Z" fill="#00377A"/>
</svg>
