<svg width="24" height="24" viewBox="0 0 24 24" fill="none"
    xmlns="http://www.w3.org/2000/svg">
    <path d="M12.001 2.25073C6.62488 2.25073 2.25098 6.62464 2.25098 12.0007C2.25098 17.3768 6.62488 21.7507 12.001 21.7507C17.3771 21.7507 21.751 17.3768 21.751 12.0007C21.751 6.62464 17.3771 2.25073 12.001 2.25073ZM18.7041 16.5007H16.5844C16.5187 16.5006 16.4542 16.4832 16.3974 16.4503C16.3405 16.4174 16.2933 16.3701 16.2605 16.3132L15.5039 15.0157C15.4541 14.9309 15.4397 14.8299 15.4636 14.7345L16.1602 11.9257C16.1742 11.8691 16.2011 11.8166 16.239 11.7722C16.2768 11.7279 16.3245 11.693 16.3782 11.6703L17.6953 11.1124C17.7597 11.0852 17.8304 11.0764 17.8995 11.0872C17.9686 11.0979 18.0333 11.1278 18.0863 11.1734L20.0377 12.8524C20.0858 12.8939 20.1226 12.9468 20.1446 13.0063C20.1667 13.0659 20.1733 13.13 20.1638 13.1928C20.0022 14.3015 19.6148 15.3653 19.0257 16.3184C18.9924 16.374 18.9453 16.42 18.8889 16.4519C18.8326 16.4839 18.7689 16.5007 18.7041 16.5007ZM6.3066 11.1162L7.62379 11.674C7.67748 11.6967 7.72513 11.7316 7.76297 11.776C7.8008 11.8203 7.82778 11.8729 7.84176 11.9295L8.53832 14.7382C8.56229 14.8336 8.54781 14.9346 8.49801 15.0195L7.74144 16.3132C7.7086 16.3701 7.6614 16.4174 7.60455 16.4503C7.54771 16.4832 7.48322 16.5006 7.41754 16.5007H5.29785C5.23374 16.5008 5.17069 16.4844 5.11472 16.4531C5.05876 16.4218 5.01174 16.3767 4.97816 16.3221C4.38901 15.3691 4.00165 14.3053 3.84004 13.1965C3.83054 13.1337 3.83712 13.0696 3.85917 13.0101C3.88123 12.9506 3.91803 12.8976 3.96613 12.8562L5.91754 11.1771C5.97036 11.1319 6.03472 11.1022 6.10343 11.0915C6.17213 11.0807 6.24248 11.0893 6.3066 11.1162V11.1162ZM18.3507 7.02682L17.5036 9.43526C17.4866 9.48448 17.4595 9.52962 17.4241 9.56779C17.3887 9.60596 17.3457 9.63634 17.2978 9.65698L15.9113 10.2443C15.8477 10.2712 15.7778 10.2801 15.7095 10.2698C15.6412 10.2595 15.577 10.2306 15.5241 10.1862L12.8869 7.97417C12.8448 7.9393 12.8108 7.89564 12.7873 7.84625C12.7638 7.79685 12.7514 7.74292 12.751 7.68823V6.11417C12.751 6.05249 12.7663 5.99178 12.7954 5.93741C12.8245 5.88303 12.8665 5.83668 12.9178 5.80245L14.9255 4.46464C14.9779 4.42967 15.0383 4.40846 15.101 4.40297C15.1638 4.39748 15.2269 4.40789 15.2846 4.43323C16.4398 4.93708 17.465 5.69758 18.2822 6.65698C18.3252 6.70714 18.3541 6.76776 18.3662 6.8327C18.3782 6.89765 18.3728 6.96461 18.3507 7.02682V7.02682ZM9.07597 4.46464L11.0841 5.80245C11.1354 5.83668 11.1775 5.88303 11.2066 5.93741C11.2357 5.99178 11.2509 6.05249 11.251 6.11417V7.68823C11.251 7.74301 11.239 7.79713 11.2158 7.84677C11.1926 7.89641 11.1589 7.94038 11.1169 7.97557L8.47972 10.1876C8.4268 10.232 8.36264 10.261 8.29432 10.2712C8.226 10.2815 8.15617 10.2726 8.09254 10.2457L6.7041 9.65698C6.65598 9.6366 6.61265 9.6064 6.57689 9.5683C6.54113 9.53019 6.51373 9.48504 6.49644 9.43573L5.64941 7.02729C5.6274 6.96485 5.62231 6.8977 5.63466 6.83266C5.64701 6.76762 5.67636 6.70701 5.71973 6.65698C6.53746 5.69662 7.56348 4.93544 8.71972 4.43136C8.77718 4.40678 8.83986 4.39696 8.90207 4.40277C8.96429 4.40858 9.02407 4.42985 9.07597 4.46464V4.46464ZM9.88738 19.8143L8.96254 17.4851C8.94139 17.4322 8.93259 17.3751 8.93681 17.3182C8.94104 17.2614 8.95817 17.2062 8.98691 17.157L9.698 15.9382C9.73085 15.8813 9.77805 15.8341 9.83489 15.8012C9.89174 15.7683 9.95623 15.7509 10.0219 15.7507H13.98C14.0457 15.7509 14.1102 15.7683 14.1671 15.8012C14.2239 15.8341 14.2711 15.8813 14.3039 15.9382L15.0155 17.157C15.0443 17.2062 15.0615 17.2613 15.0658 17.3182C15.0701 17.375 15.0614 17.4321 15.0403 17.4851L14.1221 19.8134C14.0996 19.8703 14.0636 19.9209 14.0171 19.9607C13.9706 20.0005 13.9151 20.0283 13.8553 20.0417C12.6368 20.3213 11.3708 20.3213 10.1522 20.0417C10.093 20.0281 10.0379 20.0003 9.99174 19.9607C9.9456 19.9211 9.90979 19.8708 9.88738 19.8143V19.8143Z" fill="#00377A"/>
</svg>
